# xmcd
#
# Track frame offsets: 
#        182
#        20860
#        36822
#        49787
#        59775
#        73390
#        89322
#        108237
#        126097
#        142167
#        155092
#        174922
#        192725
#
# Disc length: 2702 seconds
#
# Revision: 2
# Processed by: cddbd v1.5.2PL0 Copyright (c) Steve Scherf et al.
# Submitted via: ExactAudioCopy v1.0b1
#
DISCID=cb0a8c0d
DTITLE=Ray Charles - The Genius - CD 2
DYEAR=1993
DGENRE=Blues
TTITLE0=What'd I Say (Live)
TTITLE1=Cry
TTITLE2=Unchained My Heart
TTITLE3=Bye Bye Love
TTITLE4=You Are My Sunshine
TTITLE5=You Win Again
TTITLE6=Baby It's Cold Outside
TTITLE7=Ruby
TTITLE8=It Makes No Difference Now
TTITLE9=Makin' Believe
TTITLE10=That Lucky Old Sun
TTITLE11=Careless Love
TTITLE12=Hey Good Lookin'
EXTD=
EXTT0=
EXTT1=
EXTT2=
EXTT3=
EXTT4=
EXTT5=
EXTT6=
EXTT7=
EXTT8=
EXTT9=
EXTT10=
EXTT11=
EXTT12=
PLAYORDER=
